<svg xmlns="http://www.w3.org/2000/svg" viewBox="0 0 160 200" width="160" height="200">
  <defs>
    <style>
      @import url('https://fonts.googleapis.com/css2?family=DM+Serif+Display&amp;family=DM+Sans:wght@300;400&amp;display=swap');
      .wordmark { font-family: 'DM Serif Display', Georgia, serif; }
      .tagline { font-family: 'DM Sans', sans-serif; font-weight: 300; letter-spacing: 0.12em; }
    </style>
  </defs>

  <!-- Leaf icon — centered -->
  <g transform="translate(40, 4)">
    <path d="M40 0 C55 12 72 28 72 48 C72 68 58 82 40 88 C22 82 8 68 8 48 C8 28 25 12 40 0 Z" fill="#2d6a4f"/>
    <line x1="40" y1="8" x2="40" y2="82" stroke="#3d8a63" stroke-width="1.5" stroke-linecap="round"/>
    <path d="M40 88 C40 94 38 100 35 104" stroke="#2d6a4f" stroke-width="3" fill="none" stroke-linecap="round"/>
    <path d="M46 24 L34 50 L43 50 L34 70 L52 42 L43 42 Z" fill="#b7e4c7"/>
    <circle cx="63" cy="22" r="8" fill="#52b788"/>
    <circle cx="63" cy="22" r="4" fill="#f0faf4"/>
  </g>

  <!-- Wordmark stacked -->
  <text x="80" y="150" text-anchor="middle" class="wordmark" font-size="28" fill="#1a3a2a">QuietGreen</text>
  <text x="80" y="168" text-anchor="middle" class="tagline" font-size="9" fill="#52b788">ELECTRIC LAWN CARE</text>
</svg>
